<svg xmlns="http://www.w3.org/2000/svg" viewBox="0 0 120 120" fill="none"><circle cx="60" cy="60" r="54" stroke="#D7AE4C" stroke-width="4"/><path d="M60 28v38" stroke="#D7AE4C" stroke-width="4" stroke-linecap="round"/><path d="M60 32c17 2 27 12 27 27H60V32Z" stroke="#D7AE4C" stroke-width="4" stroke-linejoin="round"/><path d="M36 75h48c-4 6-8 10-12 12H48c-4-2-8-6-12-12Z" stroke="#D7AE4C" stroke-width="4" stroke-linejoin="round"/><path d="M31 66c8 9 16 12 23 12 9 0 14-3 22-3 7 0 13 1 18 3" stroke="#D7AE4C" stroke-width="4" stroke-linecap="round"/><path d="M31 84c8-3 16-4 24-4 8 0 16 1 24 1 5 0 9 0 14-1" stroke="#D7AE4C" stroke-width="4" stroke-linecap="round"/><path d="M39 94c8-2 14-3 21-3 7 0 13 1 21 1 5 0 9 0 12-1" stroke="#D7AE4C" stroke-width="4" stroke-linecap="round"/></svg>